<svg width="322" height="312" viewBox="0 0 322 312" fill="none" xmlns="http://www.w3.org/2000/svg">
<rect width="322" height="312" fill="#E5E5E5"/>
<path fill-rule="evenodd" clip-rule="evenodd" d="M161 312C249.918 312 322 242.156 322 156C322 114.499 305.275 76.7837 278 48.8358C278 48.8358 271 86 213 86C155 86 152 86 106 86C60 86 37.4243 56 37.4243 56C14.0614 83.0763 0 117.947 0 156C0 242.156 72.0822 312 161 312Z" fill="#7348AE"/>
<path d="M161 0C111.355 0 66.9577 21.7723 37.4243 56C37.4243 56 60 86 106 86C152 86 155 86 213 86C271 86 278 48.8358 278 48.8358C248.651 18.7632 207.087 0 161 0Z" fill="#7348AE"/>
<g filter="url(#filter0_d)">
<path d="M73.1386 133.437L111.041 187.534L200.965 181.214" stroke="white" stroke-width="8" stroke-linecap="round" stroke-linejoin="round"/>
<g filter="url(#filter1_d)">
<path d="M117.156 165.997L186.02 162.442" stroke="white" stroke-width="8" stroke-linecap="round" stroke-linejoin="round"/>
</g>
<g filter="url(#filter2_d)">
<path d="M98.383 143.691L196.883 138.759" stroke="white" stroke-width="8" stroke-linecap="round" stroke-linejoin="round"/>
</g>
</g>
<g filter="url(#filter3_dd)">
<path d="M80 198C260 224 230 163.003 230 130C230 110 260 141 260 103" stroke="white" stroke-width="8" stroke-linecap="round" stroke-linejoin="round"/>
</g>
<g filter="url(#filter4_dd)">
<g filter="url(#filter5_d)">
<circle cx="212" cy="215" r="11" fill="black"/>
<circle cx="212" cy="215" r="11" stroke="black" stroke-linecap="round" stroke-linejoin="round"/>
</g>
</g>
<g filter="url(#filter6_dd)">
<circle cx="99" cy="218" r="10" fill="black"/>
<circle cx="99" cy="218" r="10" stroke="black" stroke-linecap="round" stroke-linejoin="round"/>
</g>
<g filter="url(#filter7_dd)">
<circle cx="99" cy="218" r="4" fill="#7348AE"/>
<circle cx="99" cy="218" r="4" stroke="white" stroke-linecap="round" stroke-linejoin="round"/>
</g>
<g filter="url(#filter8_dd)">
<circle cx="212" cy="215" r="5" fill="#7348AE"/>
<circle cx="212" cy="215" r="5" stroke="white" stroke-linecap="round" stroke-linejoin="round"/>
</g>
<circle cx="208.5" cy="160.5" r="12.5" fill="white"/>
<circle cx="260.5" cy="98.5" r="5.5" fill="black"/>
<g style="mix-blend-mode:overlay" opacity="0.5">
<ellipse cx="161" cy="155.5" rx="126" ry="122.5" fill="url(#paint0_radial)"/>
</g>
<g filter="url(#filter9_d)">
<path d="M256 84C256 107.748 159.242 127 125 127C90.7583 127 63 107.748 63 84C63 60.2518 90.7583 41 125 41C159.242 41 256 60.2518 256 84Z" fill="white"/>
<path d="M255.5 84C255.5 86.7894 254.08 89.5695 251.416 92.318C248.754 95.0654 244.891 97.7368 240.11 100.297C230.553 105.415 217.429 110.037 203.209 113.923C174.766 121.697 142.063 126.5 125 126.5C107.968 126.5 92.5705 121.711 81.4443 113.995C70.3163 106.277 63.5 95.6641 63.5 84C63.5 72.3359 70.3163 61.7231 81.4443 54.0053C92.5705 46.2887 107.968 41.5 125 41.5C142.063 41.5 174.766 46.3028 203.209 54.0767C217.429 57.9635 230.553 62.5846 240.11 67.7032C244.891 70.2632 248.754 72.9346 251.416 75.682C254.08 78.4305 255.5 81.2106 255.5 84Z" stroke="white"/>
</g>
<g style="mix-blend-mode:darken" filter="url(#filter10_ddddd)">
<path d="M121.815 58.875V97.6562C121.815 98.6771 121.596 99.4375 121.159 99.9375C120.638 100.562 119.898 101.115 118.94 101.594C118.002 102.073 117.232 102.312 116.627 102.312C115.898 102.312 115.534 101.865 115.534 100.969V62.1875C115.534 61.3125 115.752 60.6146 116.19 60.0938C116.732 59.4479 117.471 58.8646 118.409 58.3438C119.346 57.8021 120.117 57.5312 120.721 57.5312C121.45 57.5312 121.815 57.9792 121.815 58.875ZM138.627 101.031L124.252 80.5C123.815 79.8958 123.596 79.3438 123.596 78.8438C123.596 78.1146 123.961 77.2812 124.69 76.3438L136.471 60.7188C137.45 59.4062 138.336 58.5521 139.127 58.1562C139.94 57.7396 141.127 57.5312 142.69 57.5312C143.836 57.5312 144.409 57.8438 144.409 58.4688C144.409 58.9271 144.107 59.5312 143.502 60.2812L131.034 76.0312C130.43 76.8021 130.127 77.4167 130.127 77.875C130.127 78.3125 130.44 78.9479 131.065 79.7812L143.502 96.375C143.94 96.9792 144.159 97.5312 144.159 98.0312C144.159 98.6146 143.982 99.2083 143.627 99.8125C142.586 101.479 141.482 102.312 140.315 102.312C139.794 102.312 139.232 101.885 138.627 101.031ZM169.56 63.25H164.497C163.685 63.25 163.279 63 163.279 62.5C163.279 62.0417 163.445 61.5729 163.779 61.0938C164.112 60.5938 164.539 60.1354 165.06 59.7188C165.602 59.3021 166.195 58.9479 166.841 58.6562C167.508 58.3646 168.154 58.1979 168.779 58.1562L171.279 58.0938C174.591 58.0938 177.675 58.5104 180.529 59.3438C183.383 60.1562 185.862 61.4583 187.966 63.25C190.07 65.0417 191.716 67.3438 192.904 70.1562C194.112 72.9688 194.716 76.375 194.716 80.375C194.716 82.2708 194.518 84.125 194.122 85.9375C193.747 87.75 193.195 89.4583 192.466 91.0625C191.737 92.6667 190.852 94.1354 189.81 95.4688C188.789 96.8021 187.643 97.9583 186.372 98.9375C185.102 99.8958 183.716 100.646 182.216 101.188C180.716 101.729 179.143 102 177.497 102C176.768 102 176.404 101.76 176.404 101.281C176.404 100.906 176.633 100.615 177.091 100.406C178.862 99.5938 180.435 98.6458 181.81 97.5625C183.185 96.4792 184.341 95.1875 185.279 93.6875C186.237 92.1667 186.956 90.3958 187.435 88.375C187.935 86.3542 188.185 84 188.185 81.3125C188.185 78.6458 187.862 76.2188 187.216 74.0312C186.591 71.8438 185.55 69.9583 184.091 68.375C182.633 66.7917 180.716 65.5625 178.341 64.6875C175.966 63.7917 173.039 63.3125 169.56 63.25ZM163.279 100.656V67C163.279 66.25 163.529 65.75 164.029 65.5C164.55 65.25 165.341 65.125 166.404 65.125C167.57 65.125 168.383 65.25 168.841 65.5C169.32 65.7292 169.56 66.2292 169.56 67V95.5938C169.56 96.4479 169.987 96.875 170.841 96.875H176.029C176.925 96.875 177.372 97.1354 177.372 97.6562C177.372 97.9688 177.05 98.375 176.404 98.875C175.779 99.375 174.997 99.8542 174.06 100.312C173.122 100.771 172.06 101.167 170.872 101.5C169.685 101.833 168.602 102 167.622 102H164.56C163.706 102 163.279 101.552 163.279 100.656Z" fill="#774AB0"/>
</g>
<defs>
<filter id="filter0_d" x="57" y="86" width="156.339" height="132.066" filterUnits="userSpaceOnUse" color-interpolation-filters="sRGB">
<feFlood flood-opacity="0" result="BackgroundImageFix"/>
<feColorMatrix in="SourceAlpha" type="matrix" values="0 0 0 0 0 0 0 0 0 0 0 0 0 0 0 0 0 0 127 0"/>
<feOffset dy="4"/>
<feGaussianBlur stdDeviation="2"/>
<feColorMatrix type="matrix" values="0 0 0 0 0 0 0 0 0 0 0 0 0 0 0 0 0 0 0.25 0"/>
<feBlend mode="normal" in2="BackgroundImageFix" result="effect1_dropShadow"/>
<feBlend mode="normal" in="SourceGraphic" in2="effect1_dropShadow" result="shape"/>
</filter>
<filter id="filter1_d" x="107.516" y="124.833" width="88.1445" height="86.7737" filterUnits="userSpaceOnUse" color-interpolation-filters="sRGB">
<feFlood flood-opacity="0" result="BackgroundImageFix"/>
<feColorMatrix in="SourceAlpha" type="matrix" values="0 0 0 0 0 0 0 0 0 0 0 0 0 0 0 0 0 0 127 0"/>
<feOffset dy="4"/>
<feGaussianBlur stdDeviation="2"/>
<feColorMatrix type="matrix" values="0 0 0 0 0 0 0 0 0 0 0 0 0 0 0 0 0 0 0.25 0"/>
<feBlend mode="normal" in2="BackgroundImageFix" result="effect1_dropShadow"/>
<feBlend mode="normal" in="SourceGraphic" in2="effect1_dropShadow" result="shape"/>
</filter>
<filter id="filter2_d" x="88.7347" y="86.9061" width="117.797" height="116.638" filterUnits="userSpaceOnUse" color-interpolation-filters="sRGB">
<feFlood flood-opacity="0" result="BackgroundImageFix"/>
<feColorMatrix in="SourceAlpha" type="matrix" values="0 0 0 0 0 0 0 0 0 0 0 0 0 0 0 0 0 0 127 0"/>
<feOffset dy="4"/>
<feGaussianBlur stdDeviation="2"/>
<feColorMatrix type="matrix" values="0 0 0 0 0 0 0 0 0 0 0 0 0 0 0 0 0 0 0.25 0"/>
<feBlend mode="normal" in2="BackgroundImageFix" result="effect1_dropShadow"/>
<feBlend mode="normal" in="SourceGraphic" in2="effect1_dropShadow" result="shape"/>
</filter>
<filter id="filter3_dd" x="71.9995" y="99" width="196.001" height="117.283" filterUnits="userSpaceOnUse" color-interpolation-filters="sRGB">
<feFlood flood-opacity="0" result="BackgroundImageFix"/>
<feColorMatrix in="SourceAlpha" type="matrix" values="0 0 0 0 0 0 0 0 0 0 0 0 0 0 0 0 0 0 127 0"/>
<feOffset dy="4"/>
<feGaussianBlur stdDeviation="2"/>
<feColorMatrix type="matrix" values="0 0 0 0 0 0 0 0 0 0 0 0 0 0 0 0 0 0 0.25 0"/>
<feBlend mode="normal" in2="BackgroundImageFix" result="effect1_dropShadow"/>
<feColorMatrix in="SourceAlpha" type="matrix" values="0 0 0 0 0 0 0 0 0 0 0 0 0 0 0 0 0 0 127 0"/>
<feOffset dy="4"/>
<feGaussianBlur stdDeviation="2"/>
<feColorMatrix type="matrix" values="0 0 0 0 0 0 0 0 0 0 0 0 0 0 0 0 0 0 0.25 0"/>
<feBlend mode="normal" in2="effect1_dropShadow" result="effect2_dropShadow"/>
<feBlend mode="normal" in="SourceGraphic" in2="effect2_dropShadow" result="shape"/>
</filter>
<filter id="filter4_dd" x="196.5" y="203.5" width="31" height="31" filterUnits="userSpaceOnUse" color-interpolation-filters="sRGB">
<feFlood flood-opacity="0" result="BackgroundImageFix"/>
<feColorMatrix in="SourceAlpha" type="matrix" values="0 0 0 0 0 0 0 0 0 0 0 0 0 0 0 0 0 0 127 0"/>
<feOffset dy="4"/>
<feGaussianBlur stdDeviation="2"/>
<feColorMatrix type="matrix" values="0 0 0 0 0 0 0 0 0 0 0 0 0 0 0 0 0 0 0.25 0"/>
<feBlend mode="normal" in2="BackgroundImageFix" result="effect1_dropShadow"/>
<feColorMatrix in="SourceAlpha" type="matrix" values="0 0 0 0 0 0 0 0 0 0 0 0 0 0 0 0 0 0 127 0"/>
<feOffset dy="4"/>
<feGaussianBlur stdDeviation="2"/>
<feColorMatrix type="matrix" values="0 0 0 0 0 0 0 0 0 0 0 0 0 0 0 0 0 0 0.25 0"/>
<feBlend mode="normal" in2="effect1_dropShadow" result="effect2_dropShadow"/>
<feBlend mode="normal" in="SourceGraphic" in2="effect2_dropShadow" result="shape"/>
</filter>
<filter id="filter5_d" x="196.5" y="203.5" width="31" height="31" filterUnits="userSpaceOnUse" color-interpolation-filters="sRGB">
<feFlood flood-opacity="0" result="BackgroundImageFix"/>
<feColorMatrix in="SourceAlpha" type="matrix" values="0 0 0 0 0 0 0 0 0 0 0 0 0 0 0 0 0 0 127 0"/>
<feOffset dy="4"/>
<feGaussianBlur stdDeviation="2"/>
<feColorMatrix type="matrix" values="0 0 0 0 0 0 0 0 0 0 0 0 0 0 0 0 0 0 0.25 0"/>
<feBlend mode="normal" in2="BackgroundImageFix" result="effect1_dropShadow"/>
<feBlend mode="normal" in="SourceGraphic" in2="effect1_dropShadow" result="shape"/>
</filter>
<filter id="filter6_dd" x="84.5" y="207.5" width="29" height="29" filterUnits="userSpaceOnUse" color-interpolation-filters="sRGB">
<feFlood flood-opacity="0" result="BackgroundImageFix"/>
<feColorMatrix in="SourceAlpha" type="matrix" values="0 0 0 0 0 0 0 0 0 0 0 0 0 0 0 0 0 0 127 0"/>
<feOffset dy="4"/>
<feGaussianBlur stdDeviation="2"/>
<feColorMatrix type="matrix" values="0 0 0 0 0 0 0 0 0 0 0 0 0 0 0 0 0 0 0.25 0"/>
<feBlend mode="normal" in2="BackgroundImageFix" result="effect1_dropShadow"/>
<feColorMatrix in="SourceAlpha" type="matrix" values="0 0 0 0 0 0 0 0 0 0 0 0 0 0 0 0 0 0 127 0"/>
<feOffset dy="4"/>
<feGaussianBlur stdDeviation="2"/>
<feColorMatrix type="matrix" values="0 0 0 0 0 0 0 0 0 0 0 0 0 0 0 0 0 0 0.25 0"/>
<feBlend mode="normal" in2="effect1_dropShadow" result="effect2_dropShadow"/>
<feBlend mode="normal" in="SourceGraphic" in2="effect2_dropShadow" result="shape"/>
</filter>
<filter id="filter7_dd" x="90.5" y="213.5" width="17" height="17" filterUnits="userSpaceOnUse" color-interpolation-filters="sRGB">
<feFlood flood-opacity="0" result="BackgroundImageFix"/>
<feColorMatrix in="SourceAlpha" type="matrix" values="0 0 0 0 0 0 0 0 0 0 0 0 0 0 0 0 0 0 127 0"/>
<feOffset dy="4"/>
<feGaussianBlur stdDeviation="2"/>
<feColorMatrix type="matrix" values="0 0 0 0 0 0 0 0 0 0 0 0 0 0 0 0 0 0 0.25 0"/>
<feBlend mode="normal" in2="BackgroundImageFix" result="effect1_dropShadow"/>
<feColorMatrix in="SourceAlpha" type="matrix" values="0 0 0 0 0 0 0 0 0 0 0 0 0 0 0 0 0 0 127 0"/>
<feOffset dy="4"/>
<feGaussianBlur stdDeviation="2"/>
<feColorMatrix type="matrix" values="0 0 0 0 0 0 0 0 0 0 0 0 0 0 0 0 0 0 0.25 0"/>
<feBlend mode="normal" in2="effect1_dropShadow" result="effect2_dropShadow"/>
<feBlend mode="normal" in="SourceGraphic" in2="effect2_dropShadow" result="shape"/>
</filter>
<filter id="filter8_dd" x="202.5" y="209.5" width="19" height="19" filterUnits="userSpaceOnUse" color-interpolation-filters="sRGB">
<feFlood flood-opacity="0" result="BackgroundImageFix"/>
<feColorMatrix in="SourceAlpha" type="matrix" values="0 0 0 0 0 0 0 0 0 0 0 0 0 0 0 0 0 0 127 0"/>
<feOffset dy="4"/>
<feGaussianBlur stdDeviation="2"/>
<feColorMatrix type="matrix" values="0 0 0 0 0 0 0 0 0 0 0 0 0 0 0 0 0 0 0.25 0"/>
<feBlend mode="normal" in2="BackgroundImageFix" result="effect1_dropShadow"/>
<feColorMatrix in="SourceAlpha" type="matrix" values="0 0 0 0 0 0 0 0 0 0 0 0 0 0 0 0 0 0 127 0"/>
<feOffset dy="4"/>
<feGaussianBlur stdDeviation="2"/>
<feColorMatrix type="matrix" values="0 0 0 0 0 0 0 0 0 0 0 0 0 0 0 0 0 0 0.25 0"/>
<feBlend mode="normal" in2="effect1_dropShadow" result="effect2_dropShadow"/>
<feBlend mode="normal" in="SourceGraphic" in2="effect2_dropShadow" result="shape"/>
</filter>
<filter id="filter9_d" x="59" y="41" width="201" height="94" filterUnits="userSpaceOnUse" color-interpolation-filters="sRGB">
<feFlood flood-opacity="0" result="BackgroundImageFix"/>
<feColorMatrix in="SourceAlpha" type="matrix" values="0 0 0 0 0 0 0 0 0 0 0 0 0 0 0 0 0 0 127 0"/>
<feOffset dy="4"/>
<feGaussianBlur stdDeviation="2"/>
<feColorMatrix type="matrix" values="0 0 0 0 0 0 0 0 0 0 0 0 0 0 0 0 0 0 0.25 0"/>
<feBlend mode="normal" in2="BackgroundImageFix" result="effect1_dropShadow"/>
<feBlend mode="normal" in="SourceGraphic" in2="effect1_dropShadow" result="shape"/>
</filter>
<filter id="filter10_ddddd" x="111.534" y="57.5312" width="87.1825" height="52.7812" filterUnits="userSpaceOnUse" color-interpolation-filters="sRGB">
<feFlood flood-opacity="0" result="BackgroundImageFix"/>
<feColorMatrix in="SourceAlpha" type="matrix" values="0 0 0 0 0 0 0 0 0 0 0 0 0 0 0 0 0 0 127 0"/>
<feOffset dy="4"/>
<feGaussianBlur stdDeviation="2"/>
<feColorMatrix type="matrix" values="0 0 0 0 0 0 0 0 0 0 0 0 0 0 0 0 0 0 0.25 0"/>
<feBlend mode="normal" in2="BackgroundImageFix" result="effect1_dropShadow"/>
<feColorMatrix in="SourceAlpha" type="matrix" values="0 0 0 0 0 0 0 0 0 0 0 0 0 0 0 0 0 0 127 0"/>
<feOffset dy="4"/>
<feGaussianBlur stdDeviation="2"/>
<feColorMatrix type="matrix" values="0 0 0 0 0 0 0 0 0 0 0 0 0 0 0 0 0 0 0.25 0"/>
<feBlend mode="normal" in2="effect1_dropShadow" result="effect2_dropShadow"/>
<feColorMatrix in="SourceAlpha" type="matrix" values="0 0 0 0 0 0 0 0 0 0 0 0 0 0 0 0 0 0 127 0"/>
<feOffset dy="4"/>
<feGaussianBlur stdDeviation="2"/>
<feColorMatrix type="matrix" values="0 0 0 0 0 0 0 0 0 0 0 0 0 0 0 0 0 0 0.25 0"/>
<feBlend mode="normal" in2="effect2_dropShadow" result="effect3_dropShadow"/>
<feColorMatrix in="SourceAlpha" type="matrix" values="0 0 0 0 0 0 0 0 0 0 0 0 0 0 0 0 0 0 127 0"/>
<feOffset dy="4"/>
<feGaussianBlur stdDeviation="2"/>
<feColorMatrix type="matrix" values="0 0 0 0 0 0 0 0 0 0 0 0 0 0 0 0 0 0 0.25 0"/>
<feBlend mode="normal" in2="effect3_dropShadow" result="effect4_dropShadow"/>
<feColorMatrix in="SourceAlpha" type="matrix" values="0 0 0 0 0 0 0 0 0 0 0 0 0 0 0 0 0 0 127 0"/>
<feOffset dy="4"/>
<feGaussianBlur stdDeviation="2"/>
<feColorMatrix type="matrix" values="0 0 0 0 0 0 0 0 0 0 0 0 0 0 0 0 0 0 0.25 0"/>
<feBlend mode="normal" in2="effect4_dropShadow" result="effect5_dropShadow"/>
<feBlend mode="normal" in="SourceGraphic" in2="effect5_dropShadow" result="shape"/>
</filter>
<radialGradient id="paint0_radial" cx="0" cy="0" r="1" gradientUnits="userSpaceOnUse" gradientTransform="translate(161 155.5) rotate(90) scale(122.5 126)">
<stop stop-color="#FFFCFC"/>
<stop offset="1" stop-color="#FFFCFC" stop-opacity="0"/>
</radialGradient>
</defs>
</svg>
